<svg xmlns="http://www.w3.org/2000/svg" version="1.1" viewBox="-5.0 -10.0 110.0 135.0">
 <path d="m83.332 5.7305h-66.664c-2.5898 0-4.6875 2.0977-4.6875 4.6875v4.1641c0.007812 2.3828 1.8008 4.375 4.1641 4.6367v61.562c-2.3633 0.26172-4.1562 2.2539-4.1641 4.6367v4.168-0.003907c0 2.5898 2.0977 4.6875 4.6875 4.6875h66.664c2.5898 0 4.6875-2.0977 4.6875-4.6875v-4.1641c-0.007812-2.3828-1.8008-4.375-4.1641-4.6367v-61.562c2.3633-0.26172 4.1562-2.2539 4.1641-4.6367v-4.1641c0-2.5898-2.0977-4.6875-4.6875-4.6875zm-8.0195 75-1.0664-12.777h0.003906c-0.28906-3.4414-1.4961-6.7461-3.4961-9.5625-2.0039-2.8164-4.7266-5.043-7.8828-6.4453l-4.375-1.9453 4.375-1.9453c3.1562-1.4023 5.8789-3.6289 7.8828-6.4453 2-2.8164 3.207-6.1211 3.4961-9.5625l1.0664-12.777h3.3281v61.457zm-41.98 0h-3.418l1.0273-12.344c0.42578-5.1172 3.6094-9.5977 8.3047-11.684l5.4453-2.4219v0.003906c1.6914-0.75391 2.7812-2.4336 2.7812-4.2852s-1.0898-3.5312-2.7812-4.2812l-5.4453-2.4219c-4.6953-2.0859-7.8789-6.5664-8.3047-11.684l-1.0273-12.344h40.172l-1.0273 12.344c-0.42578 5.1172-3.6094 9.5977-8.3047 11.684l-5.4453 2.4219v-0.003906c-1.6914 0.75391-2.7812 2.4336-2.7812 4.2852s1.0898 3.5312 2.7812 4.2812l5.4453 2.4219c4.6953 2.0859 7.8789 6.5664 8.3047 11.684l1.0273 12.344zm-11.98 0 0.003907-61.461h3.332l1.0664 12.777h-0.003906c0.28906 3.4414 1.4961 6.7461 3.4961 9.5625 2.0039 2.8164 4.7266 5.043 7.8828 6.4453l4.375 1.9453-4.375 1.9453c-3.1562 1.4023-5.8789 3.6289-7.8828 6.4453-2 2.8164-3.207 6.1211-3.4961 9.5625l-1.0664 12.777zm-4.168-69.793h65.625v3.125h-65.621zm65.625 78.125h-65.621v-3.125h65.625z"/>
</svg>