<svg xmlns="http://www.w3.org/2000/svg" version="1.1" viewBox="-5.0 -10.0 110.0 135.0">
 <g>
  <path d="m50 36.98c-4.4219 0-8.4102 2.6641-10.105 6.75-1.6914 4.0859-0.75781 8.793 2.3711 11.922 3.1289 3.125 7.832 4.0625 11.922 2.3711 4.0859-1.6953 6.75-5.6836 6.75-10.105-0.007812-6.0391-4.8984-10.934-10.938-10.938zm0 16.668v-0.003907c-2.3164 0-4.4062-1.3945-5.293-3.5352s-0.39844-4.6055 1.2422-6.2422c1.6367-1.6406 4.1016-2.1289 6.2422-1.2422s3.5391 2.9727 3.5391 5.293c-0.003907 3.1602-2.5664 5.7266-5.7305 5.7266z"/>
  <path d="m72.574 41.234c-2.4141-13.852-9.8906-26.309-20.977-34.957-0.94141-0.73047-2.2539-0.73047-3.1953 0-11.086 8.6484-18.562 21.105-20.977 34.957-5.8906 0.44141-11.402 3.0938-15.426 7.4219-4.0195 4.3281-6.2617 10.016-6.2695 15.926v2.0859c0 2.5859 2.0977 4.6836 4.6875 4.6875h14.457c0.24219 3.5273 3.1836 6.2617 6.7227 6.25h0.64453l-0.96094 4.8086h-0.003906c-0.27344 1.375 0.082031 2.8047 0.97266 3.8906 0.89062 1.0859 2.2188 1.7148 3.625 1.7148h1.625v1.5625c0 2.3008 1.8672 4.168 4.168 4.168s4.1641-1.8672 4.1641-4.168v-1.5625h8.332l0.003907 1.5625c0 2.3008 1.8633 4.168 4.1641 4.168s4.168-1.8672 4.168-4.168v-1.5625h1.625c1.4062 0 2.7344-0.62891 3.625-1.7148 0.89062-1.0859 1.2461-2.5156 0.97266-3.8906l-0.96094-4.8086h0.64062c3.5391 0.011719 6.4805-2.7227 6.7227-6.25h14.457c2.5898-0.003907 4.6875-2.1016 4.6875-4.6875v-2.0859c-0.007812-5.9102-2.25-11.598-6.2695-15.926-4.0234-4.3281-9.5352-6.9805-15.426-7.4219zm-22.574-29.551c3.8906 3.2891 7.2695 7.1406 10.027 11.426-3.2812 0.8125-6.6484 1.2227-10.027 1.2227-3.3828 0.007813-6.7539-0.39453-10.039-1.2031 2.7578-4.293 6.1406-8.1484 10.039-11.445zm-39.062 52.898c0.007812-4.4102 1.6133-8.6719 4.5195-11.988 2.9062-3.3203 6.918-5.4727 11.293-6.0586l-1.5703 19.609h-14.242zm52.555 18.23h-26.984l1.043-5.207h24.898zm6.0586-10.918c-0.29688 0.32031-0.71094 0.50391-1.1484 0.5h-36.805c-0.4375 0-0.85547-0.18359-1.1484-0.50391-0.29688-0.32031-0.44531-0.74609-0.41016-1.1836l1.9141-23.906c0.53516-6.6172 2.3516-13.07 5.3477-18.996 4.1289 1.1758 8.4062 1.7617 12.699 1.7344 4.293 0.011719 8.5664-0.57422 12.699-1.7422 2.9961 5.9297 4.8125 12.383 5.3477 19.004l1.9141 23.906c0.035156 0.4375-0.11328 0.86719-0.41016 1.1875zm19.512-5.75h-14.242l-1.5703-19.613v0.003906c4.375 0.58594 8.3867 2.7383 11.293 6.0586 2.9062 3.3164 4.5117 7.5781 4.5195 11.988z"/>
 </g>
</svg>