<svg xmlns="http://www.w3.org/2000/svg" version="1.1" viewBox="-5.0 -10.0 110.0 135.0">
 <g>
  <path d="m84.543 29.168c0.34375 0 0.66406-0.17188 0.85938-0.45703l7.2422-10.648c0.21484-0.32031 0.23828-0.73047 0.058594-1.0742-0.17969-0.33984-0.53516-0.55469-0.92188-0.55469h-8.2148v-8.2148c0-0.38672-0.21484-0.74219-0.55469-0.92188-0.34375-0.17969-0.75391-0.15625-1.0742 0.058594l-10.648 7.2422c-0.28516 0.19531-0.45703 0.51562-0.45703 0.85938v10.027l-22.84 22.84c-2.7852-1.0508-5.9258-0.015625-7.543 2.4844-1.6133 2.5039-1.2656 5.793 0.83984 7.9023 2.1094 2.1055 5.3984 2.4531 7.9023 0.83984 2.5-1.6172 3.5352-4.7578 2.4844-7.543l22.84-22.84z"/>
  <path d="m45.832 94.27c9.6797 0.007813 19.031-3.4844 26.332-9.8359 7.3008-6.3477 12.059-15.129 13.391-24.711 1.332-9.5859-0.84766-19.328-6.1367-27.43h-3.6055l-8.332 8.332c4.4648 7.1406 5.1133 16.027 1.7305 23.742-3.3789 7.7109-10.352 13.258-18.625 14.82-8.2773 1.5586-16.789-1.0703-22.746-7.0273-5.9531-5.9531-8.5859-14.465-7.0234-22.742 1.5586-8.2773 7.1055-15.25 14.816-18.629 7.7148-3.3789 16.602-2.7305 23.742 1.7305l8.332-8.332v-3.6055c-10.602-6.9062-23.844-8.4023-35.723-4.0352s-20.996 14.09-24.598 26.219c-3.6016 12.133-1.2617 25.254 6.3086 35.395 7.5703 10.141 19.484 16.113 32.137 16.109z"/>
  <path d="m45.832 44.793c0.40625-0.003907 0.80859 0.023437 1.2109 0.082031l8.5195-8.543c-5.7656-3.1445-12.695-3.3047-18.602-0.43359-5.9062 2.8711-10.059 8.4219-11.145 14.898-1.0898 6.4766 1.0234 13.078 5.6641 17.723 4.6445 4.6445 11.246 6.7539 17.723 5.6641 6.4766-1.0859 12.027-5.2383 14.898-11.145 2.8711-5.9062 2.7109-12.836-0.43359-18.602l-8.543 8.5195c0.058594 0.40234 0.085938 0.80469 0.082031 1.2109 0 3.7891-2.2812 7.2109-5.7852 8.6602s-7.5352 0.64844-10.219-2.0312c-2.6797-2.6836-3.4805-6.7148-2.0312-10.219s4.8711-5.7852 8.6602-5.7852z"/>
 </g>
</svg>